# Blender3D v248 OBJ File: 
# www.blender3d.org
mtllib 2plates_Scene.mtl
v -0.752631 1.708100 -1.043345
v -0.752631 1.708100 0.956655
v -2.322570 2.947169 0.956655
v -2.322570 2.947169 -1.043345
vn 0.619534 0.784970 -0.000000
usemtl Material.001
s off
f 1//1 4//1 2//1
f 4//1 3//1 2//1
v 1.000000 1.000000 -1.000000
v 0.999999 1.000000 1.000001
v -1.000000 1.000000 1.000000
v -1.000000 1.000000 -1.000000
v 0.333333 1.000000 1.000000
v -0.333334 1.000000 1.000000
v 0.333334 1.000000 -1.000000
v -0.333333 1.000000 -1.000000
vn 0.000000 1.000000 -0.000000
usemtl Material.002
s off
f 12//2 8//2 7//2
f 12//2 7//2 10//2
f 11//2 12//2 10//2
f 11//2 10//2 9//2
f 5//2 11//2 6//2
f 11//2 9//2 6//2
