# Blender3D v248 OBJ File: 
# www.blender3d.org
mtllib L.mtl
v -1.000000 -1.000000 1.000000
v -1.000000 1.000000 1.000000
v 1.000000 -1.000000 1.000000
v 0.999999 1.000000 1.000001
v -1.000001 -1.000000 4.541269
v 0.999999 -1.000000 4.541269
v 0.999998 1.000000 4.541270
v -1.000001 1.000000 4.541269
v -1.000002 1.000000 7.007260
v -1.000002 -1.000000 7.007260
v 0.999997 1.000000 7.007261
v 0.999998 -1.000000 7.007261
v 3.312802 -1.000000 7.007262
v 3.312803 -0.999999 4.541270
v 3.312802 1.000000 7.007262
v 3.312803 1.000001 4.541271
vn 0.000001 -0.000000 -1.000000
vn 0.000000 0.000000 -1.000000
vn 1.000000 0.000000 0.000000
vn -0.000000 1.000000 0.000000
vn -0.000000 -0.000000 1.000000
vn 0.000000 -1.000000 -0.000000
vn -1.000000 -0.000000 -0.000000
usemtl Material.001
s off
f 1//1 2//1 4//1
f 1//2 4//2 3//2
f 14//3 16//3 15//3
f 14//3 15//3 13//3
f 6//2 7//2 16//2
f 6//2 16//2 14//2
f 7//4 11//4 15//4
f 7//4 15//4 16//4
f 11//5 12//5 15//5
f 12//5 13//5 15//5
f 12//6 6//6 14//6
f 12//6 14//6 13//6
f 12//5 11//5 10//5
f 11//5 9//5 10//5
f 5//6 6//6 12//6
f 5//6 12//6 10//6
f 7//4 8//4 9//4
f 7//4 9//4 11//4
f 8//7 5//7 9//7
f 5//7 10//7 9//7
f 2//7 1//7 8//7
f 1//7 5//7 8//7
f 3//3 4//3 6//3
f 4//3 7//3 6//3
f 4//4 2//4 8//4
f 4//4 8//4 7//4
f 1//6 3//6 6//6
f 1//6 6//6 5//6
