# Blender3D v248 OBJ File: 
# www.blender3d.org
mtllib triangle2_Scene.mtl
v 2.851017 -0.000000 -0.157664
v 1.324880 0.000000 2.425146
v -1.257930 0.000000 0.899008
v -1.257930 1.000000 0.899008
v 1.324880 1.000000 2.425146
v 2.851017 1.000000 -0.157664
vt 1.000000 0.000000
vt 1.000000 1.000000
vt 0.000000 1.000000
vt 0.000000 0.000000
vn 0.000000 -1.000000 0.000000
vn -0.000000 1.000000 -0.000000
vn -0.508712 0.000000 0.860936
vn 0.860936 0.000000 0.508712
vn -0.249060 0.000000 -0.968488
usemtl wire_176026026
s off
f 1/1/1 2/2/1 3/3/1
f 4/2/2 5/3/2 6/4/2
f 3/4/3 2/1/3 5/2/3 4/3/3
f 2/4/4 1/1/4 6/2/4 5/3/4
f 1/4/5 3/1/5 4/2/5 6/3/5
