# Blender3D v249 OBJ File: 
# www.blender3d.org
mtllib ueberhang_tri.mtl
v -34.153038 0.000001 34.153038
v -27.322432 0.000001 34.153038
v -20.491823 0.000001 34.153038
v -13.661216 0.000001 34.153038
v -6.830608 0.000001 34.153038
v 0.000000 0.000001 34.153038
v 6.830608 0.000001 34.153038
v 13.661216 0.000001 34.153038
v 20.491823 0.000001 34.153038
v 27.322432 0.000001 34.153038
v 34.153038 0.000001 34.153038
v -34.153038 0.000001 27.322432
v -27.322432 0.000001 27.322432
v -20.491823 0.000001 27.322432
v -13.661216 0.000001 27.322432
v -6.830608 0.000001 27.322432
v 0.000000 0.000001 27.322432
v 6.830608 0.000001 27.322432
v 13.661216 0.000001 27.322432
v 20.491823 0.000001 27.322432
v 27.322432 0.000001 27.322432
v 34.153038 0.000001 27.322432
v -34.153038 0.000001 20.491823
v -27.322432 0.000001 20.491823
v -20.491823 0.000001 20.491823
v -13.661216 0.000001 20.491823
v -6.830608 0.000001 20.491823
v 0.000000 0.000001 20.491823
v 6.830608 0.000001 20.491823
v 13.661216 0.000001 20.491823
v 20.491823 0.000001 20.491823
v 27.322432 0.000001 20.491823
v 34.153038 0.000001 20.491823
v -34.153038 0.000001 13.661216
v -27.322432 0.000001 13.661216
v -20.491823 0.000001 13.661216
v -13.661216 0.000001 13.661216
v -6.830608 0.000001 13.661216
v -0.796153 1.047224 14.748443
v 6.034455 1.047224 14.748443
v 13.661216 0.000001 13.661216
v 20.491823 0.000001 13.661216
v 27.322432 0.000001 13.661216
v 34.153038 0.000001 13.661216
v -34.153038 0.000000 6.830608
v -27.322432 0.000000 6.830608
v -20.491823 0.000000 6.830608
v -13.661216 0.000000 6.830608
v -6.830608 0.000000 6.830608
v -0.492305 0.387819 7.863396
v 6.426827 0.906763 6.860754
v 13.661216 0.000000 6.830608
v 20.491823 0.000000 6.830608
v 27.322432 0.000000 6.830608
v 34.153038 0.000000 6.830608
v -34.153038 0.000000 0.000000
v -27.322432 0.000000 0.000000
v -20.491823 0.000000 0.000000
v -13.661216 0.000000 0.000000
v -6.830608 0.000000 0.000000
v 0.000000 0.000000 0.000000
v 6.919132 0.518944 -1.002665
v 13.661216 0.000000 0.000000
v 20.491823 0.000000 0.000000
v 27.322432 0.000000 0.000000
v 34.153038 0.000000 0.000000
v -34.153038 -0.000000 -6.830608
v -27.322432 -0.000000 -6.830608
v -20.491823 -0.000000 -6.830608
v -13.661216 -0.000000 -6.830608
v -6.830608 -0.000000 -6.830608
v 0.000000 -0.000000 -6.830608
v 6.830608 -0.000000 -6.830608
v 13.661216 -0.000000 -6.830608
v 20.491823 -0.000000 -6.830608
v 27.322432 -0.000000 -6.830608
v 34.153038 -0.000000 -6.830608
v -34.153038 -0.000001 -13.661216
v -27.322432 -0.000001 -13.661216
v -20.491823 -0.000001 -13.661216
v -13.661216 -0.000001 -13.661216
v -6.830608 -0.000001 -13.661216
v 0.000000 -0.000001 -13.661216
v 6.830608 -0.000001 -13.661216
v 13.661216 -0.000001 -13.661216
v 20.491823 -0.000001 -13.661216
v 27.322432 -0.000001 -13.661216
v 34.153038 -0.000001 -13.661216
v -34.153038 -0.000001 -20.491823
v -27.322432 -0.000001 -20.491823
v -20.491823 -0.000001 -20.491823
v -13.661216 -0.000001 -20.491823
v -6.830608 -0.000001 -20.491823
v 0.000000 -0.000001 -20.491823
v 6.830608 -0.000001 -20.491823
v 13.661216 -0.000001 -20.491823
v 20.491823 -0.000001 -20.491823
v 27.322432 -0.000001 -20.491823
v 34.153038 -0.000001 -20.491823
v -34.153038 -0.000001 -27.322432
v -27.322432 -0.000001 -27.322432
v -20.491823 -0.000001 -27.322432
v -13.661216 -0.000001 -27.322432
v -6.830608 -0.000001 -27.322432
v 0.000000 -0.000001 -27.322432
v 6.830608 -0.000001 -27.322432
v 13.661216 -0.000001 -27.322432
v 20.491823 -0.000001 -27.322432
v 27.322432 -0.000001 -27.322432
v 34.153038 -0.000001 -27.322432
v -34.153038 -0.000001 -34.153038
v -27.322432 -0.000001 -34.153038
v -20.491823 -0.000001 -34.153038
v -13.661216 -0.000001 -34.153038
v -6.830608 -0.000001 -34.153038
v 0.000000 -0.000001 -34.153038
v 6.830608 -0.000001 -34.153038
v 13.661216 -0.000001 -34.153038
v 20.491823 -0.000001 -34.153038
v 27.322432 -0.000001 -34.153038
v 34.153038 -0.000001 -34.153038
v -13.148146 20.308216 -5.896159
v 18.102318 21.234901 -6.893496
v 16.937197 17.618618 -28.171431
v -15.217114 17.556732 -26.702965
vt 0.500000 0.500000
vt 0.500000 0.400000
vt 0.600000 0.500000
vt 0.600000 0.400000
vt 0.900000 0.900000
vt 1.000000 0.900000
vt 1.000000 1.000000
vt 0.900000 1.000000
vt 0.800000 0.900000
vt 0.800000 1.000000
vt 0.700000 0.900000
vt 0.700000 1.000000
vt 0.600000 0.900000
vt 0.600000 1.000000
vt 0.500000 0.900000
vt 0.500000 1.000000
vt 0.400000 0.900000
vt 0.400000 1.000000
vt 0.300000 0.900000
vt 0.300000 1.000000
vt 0.200000 0.900000
vt 0.200000 1.000000
vt 0.100000 0.900000
vt 0.100000 1.000000
vt 0.000000 0.900000
vt 0.000000 1.000000
vt 0.900000 0.800000
vt 1.000000 0.800000
vt 0.800000 0.800000
vt 0.700000 0.800000
vt 0.600000 0.800000
vt 0.500000 0.800000
vt 0.400000 0.800000
vt 0.300000 0.800000
vt 0.200000 0.800000
vt 0.100000 0.800000
vt 0.000000 0.800000
vt 0.900000 0.700000
vt 1.000000 0.700000
vt 0.800000 0.700000
vt 0.700000 0.700000
vt 0.600000 0.700000
vt 0.500000 0.700000
vt 0.400000 0.700000
vt 0.300000 0.700000
vt 0.200000 0.700000
vt 0.100000 0.700000
vt 0.000000 0.700000
vt 0.900000 0.600000
vt 1.000000 0.600000
vt 0.800000 0.600000
vt 0.700000 0.600000
vt 0.600000 0.600000
vt 0.500000 0.600000
vt 0.400000 0.600000
vt 0.300000 0.600000
vt 0.200000 0.600000
vt 0.100000 0.600000
vt 0.000000 0.600000
vt 0.900000 0.500000
vt 1.000000 0.500000
vt 0.800000 0.500000
vt 0.700000 0.500000
vt 0.400000 0.500000
vt 0.300000 0.500000
vt 0.200000 0.500000
vt 0.100000 0.500000
vt 0.000000 0.500000
vt 0.900000 0.400000
vt 1.000000 0.400000
vt 0.800000 0.400000
vt 0.700000 0.400000
vt 0.400000 0.400000
vt 0.300000 0.400000
vt 0.200000 0.400000
vt 0.100000 0.400000
vt 0.000000 0.400000
vt 0.900000 0.300000
vt 1.000000 0.300000
vt 0.800000 0.300000
vt 0.700000 0.300000
vt 0.600000 0.300000
vt 0.500000 0.300000
vt 0.400000 0.300000
vt 0.300000 0.300000
vt 0.200000 0.300000
vt 0.100000 0.300000
vt 0.000000 0.300000
vt 0.900000 0.200000
vt 1.000000 0.200000
vt 0.800000 0.200000
vt 0.700000 0.200000
vt 0.600000 0.200000
vt 0.500000 0.200000
vt 0.400000 0.200000
vt 0.300000 0.200000
vt 0.200000 0.200000
vt 0.100000 0.200000
vt 0.000000 0.200000
vt 0.900000 0.100000
vt 1.000000 0.100000
vt 0.800000 0.100000
vt 0.700000 0.100000
vt 0.600000 0.100000
vt 0.500000 0.100000
vt 0.400000 0.100000
vt 0.300000 0.100000
vt 0.200000 0.100000
vt 0.100000 0.100000
vt 0.000000 0.100000
vt 0.900000 0.000000
vt 1.000000 0.000000
vt 0.800000 0.000000
vt 0.700000 0.000000
vt 0.600000 0.000000
vt 0.500000 0.000000
vt 0.400000 0.000000
vt 0.300000 0.000000
vt 0.200000 0.000000
vt 0.100000 0.000000
vt 0.000000 0.000000
vn -0.835796 -0.548458 -0.025277
vn -0.849227 -0.505875 0.151341
vn -0.014446 -0.843827 -0.536421
vn -0.023043 -0.841331 -0.540029
vn 0.886389 -0.456323 0.078000
vn 0.883217 -0.467929 0.031164
vn 0.071011 0.597046 0.799058
vn 0.010016 0.556409 0.830848
vn 0.000000 1.000000 -0.000000
vn 0.076744 0.997051 -0.000000
vn 0.000000 0.996059 -0.088693
vn -0.074791 0.997199 -0.000000
vn 0.124368 0.992236 -0.000000
vn 0.083158 0.995569 -0.043895
vn -0.034512 0.985586 -0.165615
vn -0.007860 0.991440 -0.130326
vn -0.052468 0.997243 -0.052469
vn 0.134492 0.990854 -0.010954
vn 0.000000 0.995445 -0.095337
vn -0.077889 0.996727 -0.021624
vn -0.152440 0.983150 -0.100887
vn -0.061072 0.998133 -0.000000
vn 0.000000 0.983780 0.179378
vn 0.136033 0.990704 -0.000000
vn -0.170985 0.985274 -0.000000
usemtl (null)
s off
f 61/1/1 50/2/1 122/2/1
f 61/1/2 122/2/2 125/1/2
f 62/3/3 61/1/3 124/3/3
f 61/1/4 125/1/4 124/3/4
f 51/4/5 62/3/5 123/4/5
f 62/3/6 124/3/6 123/4/6
f 50/2/7 51/4/7 122/2/7
f 51/4/8 123/4/8 122/2/8
f 109/5/9 110/6/9 121/7/9
f 109/5/9 121/7/9 120/8/9
f 108/9/9 109/5/9 120/8/9
f 108/9/9 120/8/9 119/10/9
f 107/11/9 108/9/9 119/10/9
f 107/11/9 119/10/9 118/12/9
f 106/13/9 107/11/9 118/12/9
f 106/13/9 118/12/9 117/14/9
f 105/15/9 106/13/9 117/14/9
f 105/15/9 117/14/9 116/16/9
f 104/17/9 105/15/9 116/16/9
f 104/17/9 116/16/9 115/18/9
f 103/19/9 104/17/9 115/18/9
f 103/19/9 115/18/9 114/20/9
f 102/21/9 103/19/9 114/20/9
f 102/21/9 114/20/9 113/22/9
f 101/23/9 102/21/9 113/22/9
f 101/23/9 113/22/9 112/24/9
f 100/25/9 101/23/9 112/24/9
f 100/25/9 112/24/9 111/26/9
f 98/27/9 99/28/9 110/6/9
f 98/27/9 110/6/9 109/5/9
f 97/29/9 98/27/9 109/5/9
f 97/29/9 109/5/9 108/9/9
f 96/30/9 97/29/9 108/9/9
f 96/30/9 108/9/9 107/11/9
f 95/31/9 96/30/9 107/11/9
f 95/31/9 107/11/9 106/13/9
f 94/32/9 95/31/9 106/13/9
f 94/32/9 106/13/9 105/15/9
f 93/33/9 94/32/9 105/15/9
f 93/33/9 105/15/9 104/17/9
f 92/34/9 93/33/9 104/17/9
f 92/34/9 104/17/9 103/19/9
f 91/35/9 92/34/9 103/19/9
f 91/35/9 103/19/9 102/21/9
f 90/36/9 91/35/9 102/21/9
f 90/36/9 102/21/9 101/23/9
f 89/37/9 90/36/9 101/23/9
f 89/37/9 101/23/9 100/25/9
f 87/38/9 88/39/9 99/28/9
f 87/38/9 99/28/9 98/27/9
f 86/40/9 87/38/9 98/27/9
f 86/40/9 98/27/9 97/29/9
f 85/41/9 86/40/9 97/29/9
f 85/41/9 97/29/9 96/30/9
f 84/42/9 85/41/9 96/30/9
f 84/42/9 96/30/9 95/31/9
f 83/43/9 84/42/9 95/31/9
f 83/43/9 95/31/9 94/32/9
f 82/44/9 83/43/9 94/32/9
f 82/44/9 94/32/9 93/33/9
f 81/45/9 82/44/9 93/33/9
f 81/45/9 93/33/9 92/34/9
f 80/46/9 81/45/9 92/34/9
f 80/46/9 92/34/9 91/35/9
f 79/47/9 80/46/9 91/35/9
f 79/47/9 91/35/9 90/36/9
f 78/48/9 79/47/9 90/36/9
f 78/48/9 90/36/9 89/37/9
f 76/49/9 77/50/9 88/39/9
f 76/49/9 88/39/9 87/38/9
f 75/51/9 76/49/9 87/38/9
f 75/51/9 87/38/9 86/40/9
f 74/52/9 75/51/9 86/40/9
f 74/52/9 86/40/9 85/41/9
f 73/53/9 74/52/9 85/41/9
f 73/53/9 85/41/9 84/42/9
f 72/54/9 73/53/9 84/42/9
f 72/54/9 84/42/9 83/43/9
f 71/55/9 72/54/9 83/43/9
f 71/55/9 83/43/9 82/44/9
f 70/56/9 71/55/9 82/44/9
f 70/56/9 82/44/9 81/45/9
f 69/57/9 70/56/9 81/45/9
f 69/57/9 81/45/9 80/46/9
f 68/58/9 69/57/9 80/46/9
f 68/58/9 80/46/9 79/47/9
f 67/59/9 68/58/9 79/47/9
f 67/59/9 79/47/9 78/48/9
f 65/60/9 66/61/9 77/50/9
f 65/60/9 77/50/9 76/49/9
f 64/62/9 65/60/9 76/49/9
f 64/62/9 76/49/9 75/51/9
f 63/63/9 64/62/9 75/51/9
f 63/63/9 75/51/9 74/52/9
f 62/3/10 63/63/10 74/52/10
f 62/3/11 74/52/11 73/53/11
f 61/1/12 62/3/12 72/54/12
f 62/3/11 73/53/11 72/54/11
f 60/64/9 61/1/9 72/54/9
f 60/64/9 72/54/9 71/55/9
f 59/65/9 60/64/9 71/55/9
f 59/65/9 71/55/9 70/56/9
f 58/66/9 59/65/9 70/56/9
f 58/66/9 70/56/9 69/57/9
f 57/67/9 58/66/9 69/57/9
f 57/67/9 69/57/9 68/58/9
f 56/68/9 57/67/9 68/58/9
f 56/68/9 68/58/9 67/59/9
f 54/69/9 55/70/9 66/61/9
f 54/69/9 66/61/9 65/60/9
f 53/71/9 54/69/9 65/60/9
f 53/71/9 65/60/9 64/62/9
f 52/72/9 53/71/9 64/62/9
f 52/72/9 64/62/9 63/63/9
f 51/4/13 52/72/13 63/63/13
f 51/4/14 63/63/14 62/3/14
f 122/2/15 123/4/15 124/3/15
f 122/2/16 124/3/16 125/1/16
f 49/73/17 50/2/17 61/1/17
f 49/73/9 61/1/9 60/64/9
f 48/74/9 49/73/9 60/64/9
f 48/74/9 60/64/9 59/65/9
f 47/75/9 48/74/9 59/65/9
f 47/75/9 59/65/9 58/66/9
f 46/76/9 47/75/9 58/66/9
f 46/76/9 58/66/9 57/67/9
f 45/77/9 46/76/9 57/67/9
f 45/77/9 57/67/9 56/68/9
f 43/78/9 44/79/9 55/70/9
f 43/78/9 55/70/9 54/69/9
f 42/80/9 43/78/9 54/69/9
f 42/80/9 54/69/9 53/71/9
f 41/81/9 42/80/9 53/71/9
f 41/81/9 53/71/9 52/72/9
f 40/82/18 41/81/18 51/4/18
f 41/81/13 52/72/13 51/4/13
f 39/83/19 40/82/19 50/2/19
f 40/82/20 51/4/20 50/2/20
f 38/84/21 39/83/21 50/2/21
f 38/84/22 50/2/22 49/73/22
f 37/85/9 38/84/9 49/73/9
f 37/85/9 49/73/9 48/74/9
f 36/86/9 37/85/9 48/74/9
f 36/86/9 48/74/9 47/75/9
f 35/87/9 36/86/9 47/75/9
f 35/87/9 47/75/9 46/76/9
f 34/88/9 35/87/9 46/76/9
f 34/88/9 46/76/9 45/77/9
f 32/89/9 33/90/9 44/79/9
f 32/89/9 44/79/9 43/78/9
f 31/91/9 32/89/9 43/78/9
f 31/91/9 43/78/9 42/80/9
f 30/92/9 31/91/9 42/80/9
f 30/92/9 42/80/9 41/81/9
f 29/93/23 30/92/23 40/82/23
f 30/92/24 41/81/24 40/82/24
f 28/94/23 29/93/23 40/82/23
f 28/94/23 40/82/23 39/83/23
f 27/95/23 28/94/23 39/83/23
f 27/95/25 39/83/25 38/84/25
f 26/96/9 27/95/9 38/84/9
f 26/96/9 38/84/9 37/85/9
f 25/97/9 26/96/9 37/85/9
f 25/97/9 37/85/9 36/86/9
f 24/98/9 25/97/9 36/86/9
f 24/98/9 36/86/9 35/87/9
f 23/99/9 24/98/9 35/87/9
f 23/99/9 35/87/9 34/88/9
f 21/100/9 22/101/9 33/90/9
f 21/100/9 33/90/9 32/89/9
f 20/102/9 21/100/9 32/89/9
f 20/102/9 32/89/9 31/91/9
f 19/103/9 20/102/9 31/91/9
f 19/103/9 31/91/9 30/92/9
f 18/104/9 19/103/9 30/92/9
f 18/104/9 30/92/9 29/93/9
f 17/105/9 18/104/9 29/93/9
f 17/105/9 29/93/9 28/94/9
f 16/106/9 17/105/9 28/94/9
f 16/106/9 28/94/9 27/95/9
f 15/107/9 16/106/9 27/95/9
f 15/107/9 27/95/9 26/96/9
f 14/108/9 15/107/9 26/96/9
f 14/108/9 26/96/9 25/97/9
f 13/109/9 14/108/9 25/97/9
f 13/109/9 25/97/9 24/98/9
f 12/110/9 13/109/9 24/98/9
f 12/110/9 24/98/9 23/99/9
f 10/111/9 11/112/9 22/101/9
f 10/111/9 22/101/9 21/100/9
f 9/113/9 10/111/9 21/100/9
f 9/113/9 21/100/9 20/102/9
f 8/114/9 9/113/9 20/102/9
f 8/114/9 20/102/9 19/103/9
f 7/115/9 8/114/9 19/103/9
f 7/115/9 19/103/9 18/104/9
f 6/116/9 7/115/9 18/104/9
f 6/116/9 18/104/9 17/105/9
f 5/117/9 6/116/9 17/105/9
f 5/117/9 17/105/9 16/106/9
f 4/118/9 5/117/9 16/106/9
f 4/118/9 16/106/9 15/107/9
f 3/119/9 4/118/9 15/107/9
f 3/119/9 15/107/9 14/108/9
f 2/120/9 3/119/9 14/108/9
f 2/120/9 14/108/9 13/109/9
f 1/121/9 2/120/9 13/109/9
f 1/121/9 13/109/9 12/110/9
